# xmcd CD database file
#
# Track frame offsets:
#	150
#	14877
#	27877
#	43377
#	55252
#	65962
#	92007
#	106982
#	122085
#	134267
#	146435
#	162340
#	180807
#	193555
#	209437
#	221017
#	236385
#	247300
#
# Disc length: 3490 seconds
#
# Revision: 0
# Processed by: cddbd v1.5.1PL0 Copyright (c) Steve Scherf et al.
# Submitted via: CDex 1.51
#
DISCID=110da012
DTITLE=Boxcar Willie - Country 8
DYEAR=1998
DGENRE=Country
TTITLE0=Freightliner Fever
TTITLE1=Truck Drivin Man
TTITLE2=Phantom 309
TTITLE3=Truck Drivin Son-of-a-gun
TTITLE4=Six Days On The Road
TTITLE5=Teddy Bear
TTITLE6=White Line Fever
TTITLE7=Girl On The Billboard
TTITLE8=How Fast Them Trucks Can Go
TTITLE9=Truckers Prayer
TTITLE10=Give Me 40 Acres
TTITLE11=Convoy
TTITLE12=Spirit Of America
TTITLE13=Old Kentucky Home
TTITLE14=Dixie
TTITLE15=Play The Star Splanged Banner Over Me
TTITLE16=Yankee Doodle
TTITLE17=The Battle Of New Orleans
EXTD=YEAR: 1998
EXTT0=
EXTT1=
EXTT2=
EXTT3=
EXTT4=
EXTT5=
EXTT6=
EXTT7=
EXTT8=
EXTT9=
EXTT10=
EXTT11=
EXTT12=
EXTT13=
EXTT14=
EXTT15=
EXTT16=
EXTT17=
PLAYORDER=
